<mxfile host="app.diagrams.net" modified="2023-09-20T03:28:40.373Z" agent="Mozilla/5.0 (Windows NT 10.0; Win64; x64) AppleWebKit/537.36 (KHTML, like Gecko) Chrome/116.0.0.0 Safari/537.36" version="21.7.5" etag="lZqL_ZEypACNizmxOnpF" type="github">
  <diagram name="第 1 页" id="tilAhC3EWIKQPtYiVlm1">
    <mxGraphModel>
      <root>
        <mxCell id="0" />
        <mxCell id="1" parent="0" />
      </root>
    </mxGraphModel>
  </diagram>
</mxfile>
